<!-- Generator: Adobe Illustrator 21.1.0, SVG Export Plug-In  -->
<svg version="1.1"
	 xmlns="http://www.w3.org/2000/svg" xmlns:xlink="http://www.w3.org/1999/xlink" xmlns:a="http://ns.adobe.com/AdobeSVGViewerExtensions/3.0/"
	 x="0px" y="0px" width="103.667px" height="103.657px" viewBox="0 0 103.667 103.657"
	 style="enable-background:new 0 0 103.667 103.657;" xml:space="preserve">
<style type="text/css">
	.st0{fill:#FFFFFF;}
</style>
<defs>
</defs>
<g>
	<path class="st0" d="M103.667,12.955v77.748c0,7.14-5.815,12.955-12.955,12.955H71.27V68.022h9.716l6.487-16.194H71.27V38.865
		c0-3.575,2.903-3.239,6.477-3.239h6.477V19.432H71.27c-5.367,0-10.22,2.175-13.739,5.693c-3.519,3.51-5.693,8.372-5.693,13.739
		v12.964H38.874v16.194h12.964v35.635H12.964C5.815,103.657,0,97.842,0,90.702V12.955C0,5.805,5.815,0,12.964,0h77.747
		C97.852,0,103.667,5.805,103.667,12.955z"/>
</g>
</svg>