<!-- Generator: Adobe Illustrator 21.1.0, SVG Export Plug-In  -->
<svg version="1.1"
	 xmlns="http://www.w3.org/2000/svg" xmlns:xlink="http://www.w3.org/1999/xlink" xmlns:a="http://ns.adobe.com/AdobeSVGViewerExtensions/3.0/"
	 x="0px" y="0px" width="50.171px" height="80.273px" viewBox="0 0 50.171 80.273"
	 style="enable-background:new 0 0 50.171 80.273;" xml:space="preserve">
<style type="text/css">
	.st0{fill:#9C1F63;}
</style>
<defs>
</defs>
<g>
	<path class="st0" d="M25.085,0C11.232,0,0,11.23,0,25.085c0,3.88,0.882,7.56,2.457,10.838c0.088,0.186,22.628,44.35,22.628,44.35
		l22.356-43.801c1.744-3.415,2.729-7.286,2.729-11.386C50.171,11.23,38.941,0,25.085,0z M25.085,36.489
		c-6.297,0-11.403-5.108-11.403-11.403s5.106-11.403,11.403-11.403c6.296,0,11.403,5.108,11.403,11.403S31.381,36.489,25.085,36.489
		z"/>
</g>
</svg>