<!-- Generator: Adobe Illustrator 21.1.0, SVG Export Plug-In  -->
<svg version="1.1"
	 xmlns="http://www.w3.org/2000/svg" xmlns:xlink="http://www.w3.org/1999/xlink" xmlns:a="http://ns.adobe.com/AdobeSVGViewerExtensions/3.0/"
	 x="0px" y="0px" width="148.71px" height="102.24px" viewBox="0 0 148.71 102.24"
	 style="enable-background:new 0 0 148.71 102.24;" xml:space="preserve">
<style type="text/css">
	.st0{fill:#FFFFFF;}
</style>
<defs>
</defs>
<g>
	<path class="st0" d="M142.39,9.85c-4.04-7.17-8.41-8.49-17.33-8.99C116.16,0.25,93.77,0,74.37,0C54.94,0,32.54,0.25,23.64,0.85
		c-8.89,0.51-13.28,1.82-17.35,9C2.14,17.02,0,29.36,0,51.09c0,0.02,0,0.03,0,0.03c0,0.02,0,0.03,0,0.03v0.02
		C0,72.8,2.14,85.24,6.29,92.33c4.07,7.18,8.45,8.48,17.34,9.08c8.91,0.52,31.31,0.83,50.74,0.83c19.4,0,41.79-0.31,50.7-0.82
		c8.92-0.6,13.29-1.9,17.33-9.08c4.19-7.09,6.31-19.53,6.31-41.16c0,0,0-0.03,0-0.05c0,0,0-0.02,0-0.03
		C148.71,29.36,146.59,17.02,142.39,9.85z M55.76,79V23.24l46.48,27.88L55.76,79z"/>
</g>
</svg>