<!-- Generator: Adobe Illustrator 21.1.0, SVG Export Plug-In  -->
<svg version="1.1"
	 xmlns="http://www.w3.org/2000/svg" xmlns:xlink="http://www.w3.org/1999/xlink" xmlns:a="http://ns.adobe.com/AdobeSVGViewerExtensions/3.0/"
	 x="0px" y="0px" width="661.586px" height="349.393px" viewBox="0 0 661.586 349.393"
	 style="enable-background:new 0 0 661.586 349.393;" xml:space="preserve">
<style type="text/css">
	.st0{fill:url(#SVGID_1_);}
	.st1{fill:url(#SVGID_2_);}
	.st2{fill:url(#SVGID_3_);}
	.st3{fill:url(#SVGID_4_);}
	.st4{fill:url(#SVGID_5_);}
	.st5{fill:url(#SVGID_6_);}
	.st6{fill:url(#SVGID_7_);}
	.st7{fill:url(#SVGID_8_);}
	.st8{fill:#44B0C6;}
	.st9{fill-rule:evenodd;clip-rule:evenodd;fill:url(#SVGID_9_);}
	.st10{fill:url(#SVGID_10_);}
	.st11{fill:url(#SVGID_11_);}
	.st12{fill:url(#SVGID_12_);}
	.st13{fill:url(#SVGID_13_);}
	.st14{fill:url(#SVGID_14_);}
	.st15{fill:url(#SVGID_15_);}
	.st16{fill:url(#SVGID_16_);}
	.st17{fill:url(#SVGID_17_);}
	.st18{fill:url(#SVGID_18_);}
	.st19{fill:url(#SVGID_19_);}
	.st20{fill:url(#SVGID_20_);}
	.st21{fill:url(#SVGID_21_);}
	.st22{fill:url(#SVGID_22_);}
	.st23{fill:url(#SVGID_23_);}
	.st24{fill:url(#SVGID_24_);}
	.st25{fill:url(#SVGID_25_);}
	.st26{fill:url(#SVGID_26_);}
	.st27{fill:url(#SVGID_27_);}
	.st28{fill:url(#SVGID_28_);}
	.st29{fill:url(#SVGID_29_);}
	.st30{fill:url(#SVGID_30_);}
	.st31{fill:url(#SVGID_31_);}
	.st32{fill-rule:evenodd;clip-rule:evenodd;fill:url(#SVGID_32_);}
	.st33{fill:url(#SVGID_33_);}
	.st34{fill:url(#SVGID_34_);}
	.st35{fill:url(#SVGID_35_);}
	.st36{fill:url(#SVGID_36_);}
	.st37{fill:url(#SVGID_37_);}
	.st38{fill:url(#SVGID_38_);}
	.st39{fill:url(#SVGID_39_);}
	.st40{fill:url(#SVGID_40_);}
	.st41{fill:url(#SVGID_41_);}
	.st42{fill:url(#SVGID_42_);}
	.st43{fill:url(#SVGID_43_);}
	.st44{fill:url(#SVGID_44_);}
	.st45{fill:url(#SVGID_45_);}
	.st46{fill:url(#SVGID_46_);}
</style>
<defs>
</defs>
<g>
	
		<linearGradient id="SVGID_1_" gradientUnits="userSpaceOnUse" x1="75.9082" y1="41.6211" x2="77.1738" y2="-15.7725" gradientTransform="matrix(1.0042 -0.0219 0.0221 1.017 -49.182 24.508)">
		<stop  offset="0.1193" style="stop-color:#B8C3C8;stop-opacity:0.4"/>
		<stop  offset="0.3989" style="stop-color:#CBD1D4;stop-opacity:0.273"/>
		<stop  offset="0.7461" style="stop-color:#DDDEDF;stop-opacity:0.1153"/>
		<stop  offset="1" style="stop-color:#E3E3E3;stop-opacity:0"/>
	</linearGradient>
	<path class="st0" d="M37.73,35.565c-6.149,1.529-12.541,3.484-19.523,6.223L37.73,35.565z"/>
	
		<linearGradient id="SVGID_2_" gradientUnits="userSpaceOnUse" x1="423.9162" y1="49.2954" x2="425.1819" y2="-8.0982" gradientTransform="matrix(1.0042 -0.0219 0.0221 1.017 -49.182 24.508)">
		<stop  offset="0.1193" style="stop-color:#B8C3C8;stop-opacity:0.4"/>
		<stop  offset="0.3989" style="stop-color:#CBD1D4;stop-opacity:0.273"/>
		<stop  offset="0.7461" style="stop-color:#DDDEDF;stop-opacity:0.1153"/>
		<stop  offset="1" style="stop-color:#E3E3E3;stop-opacity:0"/>
	</linearGradient>
	<path class="st1" d="M530.03,26.678l-0.17,0.004c-46.562,0.965-94.811-3.559-149.457-8.202c-0.012,0-0.024,0.001-0.024,0.001
		c-33.309-2.826-69.014-5.711-108.169-7.411c-2.568-0.117-5.122-0.209-7.665-0.289l-0.073,0.002
		c-23.528-0.111-44.738-1.341-64.11-2.396c-1.327,8.586-11.577,13.43-14.221,21.717c37.42,9.987,96.501,27.579,202.863,34.261
		c137.401,8.632,180.083-39.931,180.083-39.931C556.133,25.703,543.154,26.417,530.03,26.678z"/>
	
		<linearGradient id="SVGID_3_" gradientUnits="userSpaceOnUse" x1="102.6938" y1="-43.2193" x2="145.8412" y2="36.9146" gradientTransform="matrix(0.9613 -0.0336 0.034 0.9736 -12.987 133.8588)">
		<stop  offset="0" style="stop-color:#E3E3E3;stop-opacity:0"/>
		<stop  offset="0.7347" style="stop-color:#8C9FA7;stop-opacity:0.4545"/>
	</linearGradient>
	<path class="st2" d="M98.401,87.3c-25.027,4.137-47.596,18.583-62.19,39.279c-2.101,2.98-4.028,6.078-5.777,9.272
		c5.498,4.657,10.904,9.419,15.967,14.549c0,0,8.589-29.766,50.52-46.4c18.633-7.392,59.976-9.406,82.958,9.173
		C158.344,90.272,129.443,82.168,98.401,87.3z"/>
	
		<linearGradient id="SVGID_4_" gradientUnits="userSpaceOnUse" x1="201.6052" y1="-1.2356" x2="54.3835" y2="132.2847" gradientTransform="matrix(0.9613 -0.0336 0.034 0.9736 -12.987 133.8588)">
		<stop  offset="0.0528" style="stop-color:#E3E3E3;stop-opacity:0"/>
		<stop  offset="0.8134" style="stop-color:#8C9FA7;stop-opacity:0.4545"/>
	</linearGradient>
	<path class="st3" d="M182.934,242.717c-1.208,1.381-2.498,2.668-3.904,3.846c-5.141,4.374-11.153,10.648-17.203,13.619
		c-11.677,5.731-24.697,8.509-37.653,8.123c-26.772-0.822-54.5-12.975-68.819-35.977c-10.149-16.344-18.853-36.928-16.426-55.813
		c-6.265-0.644-5.321-2.789-11.568-3.588c-5.126-0.655-10.244-1.358-15.359-2.089c-1.044,6.328-1.481,12.857-1.248,19.519
		c1.87,53.488,46.12,95.349,98.843,93.507c13.196-0.461,25.663-3.623,36.925-8.936c14.453-6.813,27.23-19.695,36.625-32.477
		C183.087,242.55,183.011,242.633,182.934,242.717z"/>
	
		<linearGradient id="SVGID_5_" gradientUnits="userSpaceOnUse" x1="280.8869" y1="86.3495" x2="431.7449" y2="86.3495" gradientTransform="matrix(0.9564 -0.0334 0.0354 1.0126 -5.4195 36.727)">
		<stop  offset="0.2455" style="stop-color:#E3E3E3;stop-opacity:0"/>
		<stop  offset="0.3809" style="stop-color:#C8D5D8;stop-opacity:0.1079"/>
		<stop  offset="0.5515" style="stop-color:#ADC7CD;stop-opacity:0.2439"/>
		<stop  offset="0.7021" style="stop-color:#9CBEC6;stop-opacity:0.3639"/>
		<stop  offset="0.8157" style="stop-color:#96BBC4;stop-opacity:0.4545"/>
	</linearGradient>
	<path class="st4" d="M322.013,83.44c-22.418,4.619-42.024,18.043-55.553,36.205c0.751,0.407,1.506,0.808,2.268,1.19
		c5.371,2.692,3.523,19.872,8.024,24.192c16.777-29.118,50.018-43.164,76.219-45.8c22.269-2.24,46.859,7.199,57.818,16.546
		C389.387,89.68,355.349,76.572,322.013,83.44z"/>
	
		<linearGradient id="SVGID_6_" gradientUnits="userSpaceOnUse" x1="405.118" y1="254.856" x2="233.5255" y2="155.787" gradientTransform="matrix(0.9564 -0.0334 0.0354 1.0126 -5.4195 36.727)">
		<stop  offset="0" style="stop-color:#919FA3;stop-opacity:0.4545"/>
		<stop  offset="0.249" style="stop-color:#AEB7BA;stop-opacity:0.3413"/>
		<stop  offset="0.5491" style="stop-color:#CBCFD0;stop-opacity:0.2049"/>
		<stop  offset="0.8097" style="stop-color:#DDDEDE;stop-opacity:0.0865"/>
		<stop  offset="1" style="stop-color:#E3E3E3;stop-opacity:0"/>
	</linearGradient>
	<path class="st5" d="M355.546,267.406l-0.079,0.003c-44.457,0.749-96.418-37.491-97.355-84.651
		c-0.074-3.802,0.19-7.544,0.753-11.215c-6.412-2.336-12.781-4.784-19.116-7.319c-1.208,7.066-1.727,14.378-1.465,21.856
		c1.95,55.797,46.191,99.547,98.789,97.708c13.178-0.461,25.623-3.731,36.851-9.257c14.323-7.043,26.668-17.742,36.014-30.953
		C395.841,258.012,376.73,267.034,355.546,267.406z"/>
	
		<linearGradient id="SVGID_7_" gradientUnits="userSpaceOnUse" x1="730.8101" y1="215.5573" x2="578.1915" y2="127.4428" gradientTransform="matrix(0.9936 -0.0347 0.0364 1.0404 -67.1646 -13.3163)">
		<stop  offset="0.3052" style="stop-color:#919FA3;stop-opacity:0.4545"/>
		<stop  offset="0.4783" style="stop-color:#AEB7BA;stop-opacity:0.3413"/>
		<stop  offset="0.6867" style="stop-color:#CBCFD0;stop-opacity:0.2049"/>
		<stop  offset="0.8678" style="stop-color:#DDDEDE;stop-opacity:0.0865"/>
		<stop  offset="1" style="stop-color:#E3E3E3;stop-opacity:0"/>
	</linearGradient>
	<path class="st6" d="M619.087,99.192c-48.19-30.16-111.525-5.576-130.15,47.079c1.268,0.26,13.054,3.419,13.979,3.011l0,0
		c0,0,12.118-26.112,45.318-42.047c23.099-11.087,66.211-12.2,90.451,8.539C633.055,109.139,626.442,103.801,619.087,99.192z"/>
	
		<linearGradient id="SVGID_8_" gradientUnits="userSpaceOnUse" x1="679.8913" y1="307.284" x2="508.3248" y2="208.2301" gradientTransform="matrix(0.9936 -0.0347 0.0364 1.0404 -67.1646 -13.3163)">
		<stop  offset="0" style="stop-color:#919FA3;stop-opacity:0.4545"/>
		<stop  offset="0.249" style="stop-color:#AEB7BA;stop-opacity:0.3413"/>
		<stop  offset="0.5491" style="stop-color:#CBCFD0;stop-opacity:0.2049"/>
		<stop  offset="0.8097" style="stop-color:#DDDEDE;stop-opacity:0.0865"/>
		<stop  offset="1" style="stop-color:#E3E3E3;stop-opacity:0"/>
	</linearGradient>
	<path class="st7" d="M582.669,268.558l-0.083,0.003c-35.711,0.608-66.646-22.34-79.274-55.182
		c-11.525,2.804-23.007,5.783-34.434,8.96c15.695,38.282,52.557,64.529,94.594,63.059c13.688-0.478,26.618-3.844,38.284-9.526
		c14.865-7.225,27.677-18.223,37.358-31.765C624.482,258.925,604.642,268.168,582.669,268.558z"/>
	<g>
		<g>
			<g>
				<g>
					<g>
						<path class="st8" d="M21.667,349.393c-2.195,0-4.158-0.371-5.889-1.11c-1.733-0.74-3.213-1.758-4.442-3.054
							c-1.23-1.295-2.169-2.809-2.816-4.54c-0.648-1.731-0.972-3.589-0.972-5.572v-0.079c0-1.904,0.337-3.721,1.011-5.453
							c0.675-1.731,1.619-3.258,2.836-4.58c1.215-1.322,2.676-2.373,4.382-3.152c1.705-0.779,3.601-1.17,5.69-1.17
							c1.163,0,2.226,0.079,3.192,0.238c0.965,0.159,1.864,0.397,2.697,0.714c0.833,0.317,1.612,0.707,2.34,1.17
							c0.727,0.463,1.434,0.985,2.121,1.566l-2.022,2.379c-0.529-0.476-1.084-0.905-1.666-1.289
							c-0.582-0.383-1.209-0.714-1.883-0.992c-0.674-0.277-1.414-0.496-2.221-0.654c-0.806-0.159-1.699-0.238-2.676-0.238
							c-1.534,0-2.948,0.304-4.243,0.912c-1.296,0.609-2.406,1.428-3.332,2.459c-0.925,1.031-1.652,2.24-2.18,3.628
							c-0.529,1.388-0.794,2.849-0.794,4.382v0.079c0,1.666,0.258,3.199,0.773,4.6c0.516,1.401,1.249,2.617,2.201,3.648
							c0.952,1.031,2.102,1.838,3.451,2.419c1.348,0.582,2.868,0.873,4.56,0.873c1.586,0,3.079-0.271,4.481-0.813
							c1.401-0.542,2.577-1.196,3.529-1.963v-6.901h-8.446v-2.816H32.81v11.064c-1.297,1.164-2.889,2.161-4.779,2.994
							C26.14,348.976,24.019,349.393,21.667,349.393z"/>
						<path class="st8" d="M54.937,349.353c-1.719,0-3.286-0.258-4.699-0.773c-1.414-0.516-2.631-1.282-3.648-2.3
							c-1.018-1.017-1.805-2.28-2.36-3.787c-0.555-1.507-0.833-3.238-0.833-5.195v-16.14h3.132V337.1
							c0,3.014,0.754,5.327,2.261,6.94c1.507,1.613,3.582,2.419,6.225,2.419c2.565,0,4.601-0.767,6.107-2.3
							c1.507-1.533,2.26-3.82,2.26-6.86v-16.14h3.133v15.902c0,2.036-0.278,3.821-0.833,5.354c-0.555,1.534-1.342,2.816-2.36,3.847
							c-1.018,1.031-2.234,1.804-3.648,2.32C58.262,349.095,56.682,349.353,54.937,349.353z"/>
						<path class="st8" d="M88.169,320.96h2.935l12.65,27.957h-3.371l-3.252-7.336H82.022l-3.291,7.336h-3.212L88.169,320.96z
							 M95.901,338.726l-6.306-14.117l-6.345,14.117H95.901z"/>
						<path class="st8" d="M113.19,321.158h3.173l10.112,15.148l10.113-15.148h3.172v27.759h-3.133v-22.485l-10.112,14.871h-0.159
							l-10.112-14.831v22.445h-3.054V321.158z"/>
						<path class="st8" d="M163.99,349.393c-2.036,0-3.926-0.371-5.67-1.11c-1.745-0.74-3.252-1.751-4.521-3.034
							c-1.269-1.282-2.26-2.796-2.974-4.541c-0.714-1.745-1.071-3.609-1.071-5.591v-0.079c0-1.983,0.357-3.84,1.071-5.572
							c0.714-1.731,1.705-3.252,2.974-4.56c1.269-1.308,2.789-2.34,4.56-3.093c1.771-0.753,3.728-1.13,5.869-1.13
							c1.296,0,2.479,0.106,3.549,0.317c1.071,0.212,2.043,0.502,2.915,0.872c0.872,0.371,1.679,0.82,2.419,1.348
							c0.74,0.529,1.428,1.11,2.062,1.745l-3.886,4.481c-1.084-0.978-2.188-1.745-3.312-2.3c-1.124-0.555-2.386-0.832-3.787-0.832
							c-1.164,0-2.241,0.225-3.232,0.674c-0.991,0.45-1.844,1.071-2.558,1.864c-0.713,0.793-1.269,1.712-1.665,2.756
							c-0.397,1.044-0.595,2.161-0.595,3.351v0.079c0,1.19,0.198,2.314,0.595,3.371c0.396,1.058,0.944,1.983,1.646,2.776
							c0.699,0.793,1.546,1.422,2.538,1.884c0.991,0.463,2.082,0.694,3.271,0.694c1.586,0,2.927-0.291,4.025-0.873
							c1.097-0.581,2.188-1.374,3.272-2.379l3.886,3.926c-0.713,0.767-1.454,1.454-2.221,2.062
							c-0.767,0.609-1.605,1.131-2.518,1.567c-0.911,0.436-1.91,0.767-2.994,0.992C166.553,349.28,165.338,349.393,163.99,349.393z"
							/>
						<path class="st8" d="M197.697,349.393c-2.142,0-4.112-0.377-5.909-1.13c-1.798-0.754-3.351-1.771-4.66-3.054
							c-1.308-1.282-2.326-2.789-3.053-4.521c-0.728-1.731-1.091-3.589-1.091-5.572v-0.079c0-1.983,0.369-3.84,1.11-5.572
							c0.74-1.731,1.764-3.252,3.074-4.56c1.308-1.308,2.868-2.34,4.679-3.093c1.81-0.753,3.787-1.13,5.928-1.13
							c2.141,0,4.111,0.377,5.909,1.13c1.797,0.753,3.351,1.771,4.659,3.053c1.309,1.283,2.327,2.79,3.054,4.521
							c0.727,1.732,1.091,3.589,1.091,5.572v0.079c0,1.983-0.37,3.84-1.11,5.572c-0.741,1.732-1.766,3.252-3.074,4.56
							c-1.308,1.309-2.869,2.34-4.679,3.094C201.814,349.016,199.838,349.393,197.697,349.393z M197.776,343.762
							c1.216,0,2.34-0.224,3.371-0.674c1.031-0.449,1.91-1.071,2.637-1.864c0.727-0.793,1.296-1.711,1.706-2.756
							c0.409-1.044,0.614-2.161,0.614-3.351v-0.079c0-1.19-0.206-2.313-0.614-3.371c-0.411-1.057-0.992-1.983-1.745-2.776
							c-0.753-0.793-1.646-1.421-2.677-1.883c-1.03-0.462-2.155-0.694-3.37-0.694c-1.244,0-2.373,0.225-3.391,0.674
							c-1.018,0.45-1.891,1.071-2.618,1.864c-0.727,0.793-1.296,1.712-1.705,2.756c-0.41,1.044-0.614,2.161-0.614,3.351v0.079
							c0,1.19,0.205,2.314,0.614,3.371c0.41,1.058,0.992,1.983,1.745,2.776c0.753,0.793,1.638,1.422,2.657,1.884
							C195.403,343.531,196.533,343.762,197.776,343.762z"/>
						<path class="st8" d="M221.886,321.158h6.574l7.287,11.738l7.286-11.738h6.574v27.759h-6.028v-18.123l-7.792,11.857h-0.159
							l-7.713-11.738v18.004h-6.028V321.158z"/>
						<path class="st8" d="M260.273,321.158h6.574l7.287,11.738l7.286-11.738h6.574v27.759h-6.028v-18.123l-7.792,11.857h-0.159
							l-7.713-11.738v18.004h-6.028V321.158z"/>
						<path class="st8" d="M310.24,349.353c-3.728,0-6.662-1.031-8.804-3.093c-2.142-2.062-3.213-5.141-3.213-9.24v-15.862h6.107
							v15.704c0,2.274,0.529,3.985,1.586,5.135c1.057,1.15,2.524,1.725,4.401,1.725c1.877,0,3.344-0.555,4.402-1.665
							c1.057-1.11,1.586-2.776,1.586-4.997v-15.902h6.106v15.664c0,2.115-0.284,3.953-0.852,5.512
							c-0.569,1.56-1.381,2.862-2.439,3.906c-1.058,1.045-2.34,1.824-3.846,2.34C313.769,349.095,312.09,349.353,310.24,349.353z"/>
						<path class="st8" d="M332.604,321.158h5.631l13.007,17.091v-17.091h6.028v27.759h-5.195l-13.444-17.647v17.647h-6.028V321.158
							z"/>
						<path class="st8" d="M368.176,321.158h6.107v27.759h-6.107V321.158z"/>
						<path class="st8" d="M391.652,326.789h-8.446v-5.631h23.001v5.631h-8.447v22.128h-6.107V326.789z"/>
						<path class="st8" d="M422.663,337.972l-10.668-16.814h7.139l6.622,11.143l6.742-11.143h6.939l-10.667,16.695v11.064h-6.107
							V337.972z"/>
						<path class="st8" d="M460.495,349.393c-2.01,0-3.861-0.371-5.553-1.11c-1.692-0.74-3.159-1.751-4.401-3.034
							c-1.243-1.282-2.214-2.796-2.915-4.541c-0.701-1.745-1.051-3.609-1.051-5.591v-0.079c0-1.956,0.35-3.807,1.051-5.552
							c0.7-1.745,1.671-3.272,2.915-4.581c1.243-1.308,2.723-2.34,4.442-3.093c1.718-0.753,3.595-1.13,5.631-1.13
							c1.269,0,2.412,0.106,3.43,0.317c1.017,0.212,1.963,0.509,2.835,0.892c0.872,0.383,1.679,0.847,2.419,1.388
							c0.739,0.542,1.454,1.144,2.141,1.804l-2.141,2.3c-1.19-1.11-2.466-2.023-3.827-2.737c-1.362-0.713-2.994-1.071-4.898-1.071
							c-1.533,0-2.954,0.291-4.262,0.873c-1.309,0.582-2.446,1.388-3.41,2.419c-0.965,1.031-1.719,2.24-2.261,3.629
							c-0.542,1.388-0.813,2.875-0.813,4.461v0.079c0,1.613,0.271,3.113,0.813,4.501c0.542,1.388,1.296,2.598,2.261,3.629
							c0.965,1.031,2.101,1.844,3.41,2.439c1.308,0.595,2.729,0.892,4.262,0.892c1.904,0,3.543-0.35,4.918-1.051
							c1.374-0.7,2.723-1.685,4.045-2.954l2.062,2.023c-0.713,0.74-1.461,1.408-2.24,2.003c-0.781,0.595-1.62,1.104-2.519,1.527
							c-0.899,0.423-1.863,0.753-2.895,0.991C462.913,349.274,461.763,349.393,460.495,349.393z"/>
						<path class="st8" d="M493.924,349.393c-2.116,0-4.039-0.383-5.77-1.15c-1.733-0.766-3.219-1.804-4.462-3.113
							c-1.243-1.309-2.201-2.829-2.875-4.56c-0.674-1.731-1.011-3.549-1.011-5.453v-0.079c0-1.904,0.344-3.727,1.031-5.472
							c0.688-1.745,1.652-3.272,2.895-4.58c1.243-1.309,2.737-2.353,4.482-3.133c1.744-0.779,3.674-1.17,5.789-1.17
							c2.115,0,4.038,0.384,5.77,1.15c1.732,0.767,3.218,1.804,4.462,3.113c1.243,1.309,2.201,2.829,2.874,4.56
							c0.675,1.732,1.011,3.549,1.011,5.453v0.079c0,1.904-0.344,3.728-1.03,5.472c-0.689,1.745-1.653,3.272-2.895,4.581
							c-1.243,1.309-2.736,2.353-4.481,3.133C497.969,349.003,496.039,349.393,493.924,349.393z M494.003,346.498
							c1.586,0,3.047-0.297,4.382-0.892c1.335-0.595,2.479-1.408,3.43-2.439c0.952-1.031,1.699-2.234,2.241-3.609
							c0.541-1.375,0.813-2.855,0.813-4.442v-0.079c0-1.586-0.271-3.073-0.813-4.461c-0.542-1.388-1.303-2.597-2.28-3.628
							c-0.979-1.031-2.136-1.85-3.471-2.459c-1.335-0.608-2.796-0.912-4.381-0.912c-1.586,0-3.047,0.298-4.382,0.892
							c-1.336,0.595-2.479,1.408-3.43,2.439c-0.952,1.031-1.699,2.234-2.241,3.609c-0.542,1.375-0.813,2.855-0.813,4.441v0.079
							c0,1.586,0.271,3.073,0.813,4.461c0.542,1.388,1.302,2.597,2.28,3.629c0.978,1.031,2.135,1.851,3.47,2.459
							C490.956,346.194,492.417,346.498,494.003,346.498z"/>
						<path class="st8" d="M518.708,321.158h3.133v24.864h15.624v2.895h-18.757V321.158z"/>
						<path class="st8" d="M547.22,321.158h3.133v24.864h15.624v2.895H547.22V321.158z"/>
						<path class="st8" d="M575.732,321.158h20.066v2.855h-16.932v9.478h15.148v2.855h-15.148v9.716h17.131v2.855h-20.264V321.158z"
							/>
						<path class="st8" d="M619.156,349.393c-2.195,0-4.158-0.371-5.889-1.11c-1.733-0.74-3.213-1.758-4.442-3.054
							c-1.23-1.295-2.169-2.809-2.816-4.54c-0.648-1.731-0.972-3.589-0.972-5.572v-0.079c0-1.904,0.337-3.721,1.011-5.453
							c0.675-1.731,1.619-3.258,2.836-4.58c1.215-1.322,2.676-2.373,4.382-3.152c1.705-0.779,3.601-1.17,5.69-1.17
							c1.163,0,2.226,0.079,3.192,0.238c0.965,0.159,1.864,0.397,2.697,0.714c0.833,0.317,1.612,0.707,2.34,1.17
							c0.727,0.463,1.434,0.985,2.121,1.566l-2.022,2.379c-0.529-0.476-1.084-0.905-1.666-1.289
							c-0.582-0.383-1.209-0.714-1.883-0.992c-0.674-0.277-1.414-0.496-2.221-0.654c-0.806-0.159-1.699-0.238-2.676-0.238
							c-1.534,0-2.949,0.304-4.243,0.912c-1.297,0.609-2.406,1.428-3.332,2.459c-0.925,1.031-1.652,2.24-2.18,3.628
							c-0.529,1.388-0.794,2.849-0.794,4.382v0.079c0,1.666,0.258,3.199,0.773,4.6c0.516,1.401,1.249,2.617,2.201,3.648
							c0.952,1.031,2.102,1.838,3.451,2.419c1.348,0.582,2.868,0.873,4.56,0.873c1.586,0,3.079-0.271,4.481-0.813
							c1.401-0.542,2.577-1.196,3.529-1.963v-6.901h-8.446v-2.816h11.46v11.064c-1.297,1.164-2.889,2.161-4.779,2.994
							C623.629,348.976,621.508,349.393,619.156,349.393z"/>
						<path class="st8" d="M641.322,321.158h20.066v2.855h-16.932v9.478h15.148v2.855h-15.148v9.716h17.131v2.855h-20.264V321.158z"
							/>
					</g>
					<g>
						<linearGradient id="SVGID_9_" gradientUnits="userSpaceOnUse" x1="423.8159" y1="-135.3907" x2="237.691" y2="186.9871">
							<stop  offset="0" style="stop-color:#6AC8CD"/>
							<stop  offset="0.2051" style="stop-color:#8FD1CE"/>
							<stop  offset="0.7087" style="stop-color:#17C7D2"/>
						</linearGradient>
						<path class="st9" d="M661.508,1.841c-1.757,1.05-91.216,53.981-241.857,54.505c-15.915,0.061-31.634-0.696-47.219-1.989
							l-0.012-0.012C270.013,45.851,173.401,13.85,64.818,32.548h-0.012C43.704,36.185,22.139,41.738,0,49.756
							c0-0.012,0.012-0.012,0.024-0.024c2.051-1.208,39.262-22.81,104.825-37.297c39.469-8.092,90.704-13.816,154.704-12.144h0.073
							c2.551,0.134,5.114,0.281,7.689,0.452c39.274,2.526,75.058,6.151,108.437,9.666c0,0,0.012,0,0.024,0
							c54.761,5.773,103.104,11.289,149.871,11.338h0.171c13.181,0.024,26.227-0.403,39.262-1.379
							C596.788,18,628.41,12.386,661.508,1.841z"/>
					</g>
					<g>
						<g>
							<linearGradient id="SVGID_10_" gradientUnits="userSpaceOnUse" x1="54.9127" y1="266.4659" x2="155.0838" y2="92.9646">
								<stop  offset="0" style="stop-color:#3CB9D2"/>
								<stop  offset="0.0263" style="stop-color:#3DBAD1"/>
								<stop  offset="0.3126" style="stop-color:#48BEC9"/>
								<stop  offset="0.6546" style="stop-color:#4BBFC7"/>
							</linearGradient>
							<path class="st10" d="M205.188,179.725c0-16.696-4.083-32.426-11.281-46.239c-2.2-4.216-4.682-8.265-7.449-12.098
								c-0.05,0.1-0.133,0.2-0.25,0.3c-0.016-0.033-0.05-0.067-0.067-0.1c-0.2,0.383-0.75,0.666-1.35,1.25
								c-1.633,1.566-3.282,3.166-4.915,4.732c-3.517,3.399-7.032,6.832-10.548,10.231c-1.533,1.499-3.066,2.983-4.616,4.466
								c-1.267-0.917-2.383-2.067-3.599-3.049c-3.099-2.466-6.432-4.616-9.998-6.348c-6.665-3.25-13.98-4.899-21.378-4.949
								c-1.999-0.017-3.999,0.083-5.965,0.283c-0.017,0-0.017,0-0.034,0c-8.431,0.866-16.445,3.665-23.411,8.298
								c-0.45,0.283-0.916,0.6-1.366,0.916c-0.05,0.033-0.1,0.067-0.133,0.1c-0.033,0-0.067,0.033-0.084,0.05
								c-14.896,10.031-21.778,26.061-21.662,42.04c0,0.7,0.017,1.383,0.05,2.067c0.2,6.032,1.45,12.03,3.733,17.679
								c0.166,0.417,0.333,0.833,0.516,1.25c6.132,14.597,18.696,26.461,36.725,29.743c0.05,0.016,0.1,0.016,0.151,0.033
								c4.415,0.9,8.981,1.25,13.563,0.967c3.833-0.234,7.665-0.917,11.381-2.016c1.334-0.4,3.149-0.75,4.349-1.534
								c0.067-0.05,0.133-0.083,0.2-0.133c0.117-0.05,0.233-0.117,0.334-0.2c1.25-0.9,1.7-3.766,2.199-5.182
								c1.466-3.916,2.916-7.832,4.166-11.814c0.633-1.949,0.933-4.298,3.032-5.781c0.017-0.033,0.034-0.033,0.05-0.05
								c0.949-0.566,2.216-1,3.949-1.183c0.016-0.016,0.05-0.016,0.067-0.016c-0.167-0.017-0.334-0.05-0.483-0.084
								c0.233-0.033,0.483-0.067,0.733-0.099c0.016-0.034,0.067-0.034,0.083-0.034c-1.116-0.166-2.216-0.366-3.266-0.616
								c-0.333-0.067-0.666-0.167-1-0.283c-9.864-3.066-17.029-12.298-17.029-23.178c0-2.549,0.383-5.016,1.133-7.331
								c15.747,1.816,28.627,2.299,46.123,0.617c1.766-0.167,3.526-0.302,5.393-0.502l0.023,46.541c0,2.449,0,5.065-0.083,8.431
								c0.116-0.217,0.233-0.434,0.333-0.666v0.466C200.972,212.7,205.188,196.704,205.188,179.725z M178.727,246.459
								c-5.548,4.332-11.647,7.998-18.095,10.848c-12.447,5.498-26.193,7.898-39.757,7.031
								c-28.026-1.816-53.904-17.746-68.067-42.023c-14.146-24.311-15.329-54.904-2.932-80.148
								c13.364-27.194,40.307-45.289,70.467-47.406c15.363-1.083,30.759,1.816,44.473,8.898c4.948,2.55,10.564,5.666,15.063,9.515
								c-5.882-6.615-12.631-12.447-20.079-17.313c-15.746-10.281-34.558-16.279-54.77-16.279
								c-55.321,0-100.16,44.84-100.16,100.143c0,55.32,44.84,100.159,100.16,100.159c13.846,0,27.027-2.816,39.024-7.898
								c15.396-6.515,28.826-16.763,39.14-29.627c-0.067,0.1-0.15,0.183-0.233,0.267
								C181.643,244.01,180.243,245.292,178.727,246.459z"/>
						</g>
						<linearGradient id="SVGID_11_" gradientUnits="userSpaceOnUse" x1="204.3132" y1="207.6037" x2="90.7869" y2="142.0593">
							<stop  offset="0.1033" style="stop-color:#54C3C5"/>
							<stop  offset="0.1792" style="stop-color:#64C5C7"/>
							<stop  offset="0.2788" style="stop-color:#6FC6C9"/>
							<stop  offset="0.419" style="stop-color:#76C7CA"/>
							<stop  offset="0.8083" style="stop-color:#78C7CA"/>
						</linearGradient>
						<path class="st11" d="M204.854,179.941c0,16.713-4.099,32.476-11.347,46.289c-0.1,0.233-0.216,0.449-0.333,0.666
							c0.083-3.366,0.083-5.982,0.083-8.431l0.042-46.743c-1.866,0.2-3.691,0.537-5.457,0.704
							c-17.496,1.683-30.376,1.199-46.123-0.617c-0.083-0.017-0.183-0.017-0.266-0.033c-0.783,2.383-1.183,4.948-1.183,7.565
							c0,10.897,7.148,20.112,17.013,23.194c0.333,0.116,0.666,0.216,1.016,0.266c0.9,0.233,1.816,0.4,2.766,0.55
							c0.15,0.033,0.317,0.067,0.483,0.084c-0.017,0-0.05,0-0.067,0.016c-1.733,0.183-3,0.617-3.949,1.183
							c-0.016,0.017-0.033,0.017-0.05,0.05c-2.399,1.466-2.716,3.948-3.365,5.999c-1.25,3.999-2.7,7.898-4.149,11.814
							c-0.517,1.417-0.967,4.282-2.216,5.166c-0.067,0.05-0.133,0.083-0.2,0.133c-1.199,0.783-3.015,1.133-4.349,1.534
							c-3.716,1.099-7.548,1.783-11.381,2.016c-4.582,0.283-9.147-0.067-13.563-0.967c-0.05-0.017-0.1-0.017-0.151-0.033
							c-9.147-1.9-17.696-6.265-24.661-12.714c-5.315-4.932-9.331-10.748-12.064-17.03c-0.183-0.417-0.35-0.833-0.516-1.25
							c-2.283-5.649-3.533-11.647-3.733-17.679c-0.033-0.684-0.05-1.367-0.05-2.067c0.05-12.13,4.283-24.277,12.797-34.025
							c2.566-2.949,5.433-5.532,8.514-7.748c0.117-0.1,0.233-0.183,0.35-0.267c0.017-0.016,0.05-0.05,0.084-0.05
							c0.033-0.033,0.083-0.067,0.133-0.1c0.45-0.316,0.916-0.633,1.366-0.916c5.982-3.9,12.731-6.482,19.828-7.649
							c0.55-0.083,1.083-0.166,1.633-0.25c2.499-0.316,5.049-0.483,7.615-0.466c7.414,0.033,14.713,1.7,21.378,4.932
							c3.565,1.749,6.898,3.899,9.998,6.348c1.233,1.016,2.366,2.199,3.665,3.115c0.084-0.083,0.183-0.166,0.267-0.266
							c1.55-1.483,3.083-2.966,4.616-4.466c3.516-3.399,7.031-6.832,10.548-10.231c1.633-1.566,3.282-3.166,4.915-4.732
							c0.6-0.583,1.15-0.866,1.35-1.25c0.017,0.033,0.05,0.067,0.067,0.1c2.733,3.816,5.182,7.832,7.382,11.997
							C200.772,147.516,204.854,163.262,204.854,179.941z"/>
					</g>
					<g>
						<linearGradient id="SVGID_12_" gradientUnits="userSpaceOnUse" x1="420.0763" y1="229.6665" x2="246.0105" y2="129.1696">
							<stop  offset="0.0146" style="stop-color:#26C0DC"/>
							<stop  offset="0.6546" style="stop-color:#56C2D1"/>
						</linearGradient>
						<path class="st12" d="M422.203,133.036v-0.017c-0.55-1.05-1.116-2.083-1.7-3.099c-0.5-0.883-1-1.749-1.533-2.616
							c-0.35-0.583-0.7-1.15-1.083-1.717c-0.433-0.7-0.884-1.383-1.35-2.066c-0.566-0.866-1.166-1.717-1.766-2.55l-3.149,3.049
							l-8.782,8.482l-9.963,9.664h-0.017c-1.7-1.633-3.516-3.166-5.433-4.566c-1.899-1.383-3.915-2.649-6.015-3.765
							c-6.998-3.766-14.996-5.949-23.527-6.082c-10.865-0.184-21.012,3.016-29.427,8.631c-1.15,0.766-2.267,1.566-3.333,2.433
							c-0.25,0.2-0.5,0.383-0.75,0.583c-10.531,8.082-16.463,19.412-18.245,31.326c-0.084,0.534-0.151,1.05-0.234,1.567
							c-0.167,1.116-0.283,2.249-0.367,3.399c-0.016,0.116-0.016,0.233-0.016,0.35c-0.067,0.833-0.1,1.683-0.116,2.533
							c-0.05,3.649,0.266,7.214,0.95,10.664c0.049,0.299,0.1,0.6,0.183,0.9c0.317,1.516,0.7,2.999,1.15,4.449
							c1.8,5.899,4.649,11.364,8.348,16.146c0.25,0.334,0.5,0.666,0.749,0.983c0.051,0.067,0.117,0.15,0.167,0.217
							c0.033,0.016,0.05,0.049,0.067,0.083c5.432,6.848,12.697,12.397,21.662,15.646c0.6,0.233,1.183,0.433,1.783,0.633
							c0.05,0.017,0.1,0.033,0.167,0.05c4.916,1.666,10.147,2.599,15.597,2.683c1.666,0.033,3.298-0.017,4.915-0.167
							c0.167,0,0.35-0.017,0.517-0.033c2.749-0.233,5.449-0.7,8.048-1.35c1.616-0.417,3.199-0.9,4.765-1.45
							c1.55-0.549,3.066-1.183,4.549-1.883c1.483-0.683,2.916-1.45,4.315-2.283c3.499-2.066,6.749-4.549,9.648-7.365l7.115,6.865
							l14.814,14.28h0.016c0.534-0.749,1.067-1.499,1.567-2.249v-0.017c0.516-0.766,1.016-1.533,1.516-2.316
							c0.5-0.783,0.984-1.566,1.45-2.35c0.483-0.799,0.95-1.6,1.4-2.416c0.141-0.253,0.263-0.522,0.401-0.776
							c0.849-1.556,1.677-3.138,2.449-4.739c0.899-1.883,1.732-3.799,2.532-5.732c0.783-1.933,1.5-3.883,2.15-5.882
							c0.583-1.717,1.1-3.45,1.583-5.216c2.316-8.448,3.549-17.345,3.549-26.543C433.517,162.679,429.418,146.883,422.203,133.036z
							 M353.003,264.255c-46.856-0.8-84.214-39.407-83.464-86.28c0.767-46.905,39.408-84.297,86.296-83.53
							c5.116,0.084,10.098,0.617,14.947,1.55c15.179,2.949,28.893,9.931,40.008,19.779c-6.499-7.932-14.197-14.864-22.812-20.496
							c-15.796-10.314-34.674-16.329-54.954-16.329c-55.47,0-100.46,44.972-100.46,100.46c0,55.487,44.989,100.476,100.46,100.476
							c13.897,0,27.127-2.816,39.157-7.915c15.346-6.498,28.743-16.696,39.074-29.493c-15.38,13.846-35.842,22.144-58.17,21.778
							H353.003z"/>
						<linearGradient id="SVGID_13_" gradientUnits="userSpaceOnUse" x1="425.889" y1="132.0892" x2="331.3064" y2="226.6718">
							<stop  offset="0" style="stop-color:#6FC2C8"/>
							<stop  offset="0.4951" style="stop-color:#6DC1C8"/>
							<stop  offset="0.6734" style="stop-color:#66C0C6"/>
							<stop  offset="0.8005" style="stop-color:#5BBCC4"/>
							<stop  offset="0.9025" style="stop-color:#4AB8C0"/>
							<stop  offset="0.9896" style="stop-color:#34B2BC"/>
							<stop  offset="1" style="stop-color:#31B1BB"/>
						</linearGradient>
						<path class="st13" d="M433.517,179.408c0,9.198-1.233,18.096-3.549,26.543c-0.483,1.766-1,3.499-1.583,5.216
							c-0.649,1.983-1.383,3.948-2.15,5.882c-0.8,1.933-1.633,3.849-2.532,5.732c-0.9,1.866-1.866,3.716-2.866,5.516
							c-0.45,0.816-0.917,1.617-1.383,2.416c-0.466,0.783-0.949,1.567-1.45,2.35c-0.5,0.784-1,1.55-1.516,2.316v0.017
							c-0.534,0.749-1.05,1.499-1.583,2.249l-14.814-14.28l-7.115-6.865c-2.899,2.816-6.148,5.299-9.648,7.365
							c-1.4,0.833-2.832,1.6-4.315,2.283c-1.483,0.7-2.999,1.334-4.549,1.883c-1.566,0.55-3.149,1.033-4.765,1.45
							c-2.6,0.65-5.299,1.116-8.048,1.35c-0.167,0.016-0.35,0.033-0.517,0.033c-1.617,0.15-3.249,0.2-4.915,0.167
							c-5.45-0.084-10.681-1.017-15.597-2.683c-0.067-0.016-0.116-0.033-0.167-0.05c-0.6-0.2-1.183-0.4-1.783-0.633
							c-1.55-0.6-3.066-1.267-4.549-2c-0.75-0.367-1.483-0.749-2.199-1.15c-3.266-1.833-6.315-3.983-9.082-6.449
							c-0.6-0.517-1.167-1.049-1.716-1.616c-0.317-0.267-0.617-0.567-0.9-0.866c-0.583-0.583-1.133-1.183-1.683-1.783
							c-0.517-0.583-1.033-1.183-1.533-1.783c-0.016-0.033-0.033-0.067-0.067-0.083c-0.05-0.067-0.116-0.151-0.167-0.217
							c-0.25-0.317-0.5-0.649-0.749-0.983c-3.699-4.782-6.549-10.247-8.348-16.146c-0.45-1.45-0.833-2.932-1.15-4.449
							c-0.083-0.3-0.133-0.601-0.183-0.9c-0.684-3.45-1-7.015-0.95-10.664c0.016-0.85,0.05-1.7,0.116-2.533
							c0-0.117,0-0.233,0.016-0.35c0.084-1.151,0.2-2.283,0.367-3.399c0.083-0.517,0.15-1.033,0.234-1.567
							c0.016-0.15,0.033-0.299,0.083-0.433c0.367-2.116,0.866-4.166,1.499-6.182c3.016-9.831,8.915-18.38,16.663-24.711
							c0.25-0.2,0.5-0.383,0.75-0.583c1.066-0.866,2.183-1.666,3.333-2.433c8.414-5.615,18.562-8.815,29.427-8.631
							c8.531,0.133,16.529,2.316,23.527,6.082c2.1,1.116,4.116,2.382,6.015,3.765c1.917,1.4,3.733,2.933,5.433,4.566h0.017
							l9.963-9.664l8.782-8.482l3.149-3.049c0.6,0.833,1.2,1.683,1.766,2.55c0.466,0.683,0.917,1.366,1.35,2.066
							c0.383,0.566,0.733,1.133,1.083,1.717c0.533,0.866,1.033,1.733,1.533,2.616c0.583,1.016,1.15,2.05,1.7,3.099v0.017
							C429.418,146.883,433.517,162.679,433.517,179.408z"/>
					</g>
					<g>
						<linearGradient id="SVGID_14_" gradientUnits="userSpaceOnUse" x1="611.1967" y1="266.4362" x2="510.7084" y2="92.3854">
							<stop  offset="0.1645" style="stop-color:#77CBD3"/>
							<stop  offset="0.3507" style="stop-color:#6CC8D4"/>
							<stop  offset="0.6334" style="stop-color:#62C6D5"/>
							<stop  offset="1" style="stop-color:#5FC5D5"/>
						</linearGradient>
						<path class="st14" d="M661.246,173.176c-0.133-2.05-0.316-4.099-0.566-6.115c-0.133-1.016-0.267-2.033-0.417-3.032
							c-0.3-2-0.666-3.983-1.1-5.949c-1.932-8.848-4.999-17.262-9.047-25.044v-0.017c-0.55-1.05-1.116-2.083-1.7-3.099
							c-0.583-1.016-1.167-2.016-1.783-3.016c-0.05-0.067-0.1-0.15-0.15-0.233c-0.517-0.85-1.067-1.7-1.617-2.534
							c-0.133-0.199-0.266-0.417-0.417-0.616c-0.566-0.866-1.166-1.717-1.765-2.55c0.016-0.016,0-0.016,0-0.016l-6.682,6.482
							l-5.249,5.065l-9.981,9.664c-1.133-1.1-2.316-2.133-3.549-3.116c-3.066-2.466-6.432-4.598-10.047-6.298
							c-6.466-3.1-13.713-4.882-21.378-4.999c-10.88-0.184-21.029,3.016-29.443,8.631c-1.133,0.75-2.25,1.566-3.316,2.433
							c-0.25,0.2-0.5,0.383-0.749,0.583c-10.514,8.082-16.463,19.396-18.246,31.309c-0.083,0.5-0.15,1-0.216,1.499
							c-0.317,2.083-0.483,4.199-0.517,6.366c-0.183,12.08,3.782,23.261,10.631,32.159c0.3,0.417,0.617,0.816,0.917,1.2
							c0.016,0.033,0.05,0.067,0.067,0.083c5.432,6.848,12.697,12.397,21.662,15.646c0.583,0.233,1.183,0.433,1.783,0.633
							c0.049,0.017,0.1,0.033,0.167,0.05c4.899,1.666,10.147,2.599,15.596,2.683c1.666,0.033,3.299-0.017,4.915-0.167
							c0.167,0,0.351-0.017,0.517-0.033c2.75-0.233,5.449-0.7,8.048-1.35c1.617-0.417,3.199-0.883,4.749-1.45
							c1.55-0.549,3.083-1.183,4.566-1.883c1.482-0.683,2.916-1.45,4.315-2.283c3.499-2.066,6.732-4.549,9.648-7.365l7.115,6.865
							l14.813,14.28c1.349-1.866,2.616-3.782,3.815-5.748c0.334-0.534,0.65-1.067,0.967-1.6c0.4-0.666,0.784-1.333,1.15-1.999
							c3.033-5.415,5.566-11.147,7.549-17.129c0.583-1.717,1.1-3.45,1.582-5.216c2.316-8.448,3.55-17.345,3.55-26.543
							C661.43,177.326,661.364,175.243,661.246,173.176z M580.915,264.255c-46.856-0.8-84.23-39.407-83.463-86.28
							c0.75-46.905,39.407-84.297,86.296-83.53c5.115,0.084,10.098,0.617,14.946,1.55c15.18,2.949,28.894,9.931,39.991,19.779
							c-6.481-7.932-14.18-14.864-22.794-20.496c-15.796-10.314-34.675-16.329-54.954-16.329c-55.487,0-100.46,44.972-100.46,100.46
							c0,55.487,44.972,100.476,100.46,100.476c13.896,0,27.127-2.816,39.157-7.915c15.329-6.482,28.71-16.68,39.007-29.443
							c-15.363,13.83-35.808,22.094-58.102,21.728H580.915z"/>
						<linearGradient id="SVGID_15_" gradientUnits="userSpaceOnUse" x1="653.7949" y1="226.6673" x2="559.2233" y2="132.0958">
							<stop  offset="0" style="stop-color:#31B1BB"/>
							<stop  offset="0.0104" style="stop-color:#34B2BC"/>
							<stop  offset="0.0975" style="stop-color:#4AB8C0"/>
							<stop  offset="0.1995" style="stop-color:#5BBCC4"/>
							<stop  offset="0.3266" style="stop-color:#66C0C6"/>
							<stop  offset="0.5049" style="stop-color:#6DC1C8"/>
							<stop  offset="1" style="stop-color:#6FC2C8"/>
						</linearGradient>
						<path class="st15" d="M661.43,179.408c0,9.198-1.234,18.096-3.55,26.543c-0.483,1.766-0.999,3.499-1.582,5.216
							c-1.983,5.982-4.516,11.714-7.549,17.129c-0.366,0.666-0.749,1.333-1.15,1.999c-0.317,0.534-0.633,1.067-0.967,1.6
							c-1.199,1.966-2.466,3.882-3.815,5.748l-14.813-14.28l-7.115-6.865c-2.916,2.816-6.149,5.299-9.648,7.365
							c-1.399,0.833-2.833,1.6-4.315,2.283c-1.483,0.7-3.016,1.334-4.566,1.883c-1.55,0.567-3.132,1.033-4.749,1.45
							c-2.6,0.65-5.298,1.116-8.048,1.35c-0.166,0.016-0.35,0.033-0.517,0.033c-1.616,0.15-3.249,0.2-4.915,0.167
							c-5.449-0.084-10.697-1.017-15.596-2.683c-0.067-0.016-0.117-0.033-0.167-0.05c-0.6-0.2-1.2-0.4-1.783-0.633
							c-7.798-2.966-14.68-7.765-20.129-13.864c-0.534-0.583-1.033-1.183-1.533-1.783c-0.017-0.016-0.05-0.05-0.067-0.083
							c-0.3-0.384-0.617-0.784-0.917-1.2c-6.848-8.898-10.814-20.078-10.631-32.159c0.033-2.167,0.2-4.283,0.517-6.366
							c0.067-0.5,0.133-1,0.216-1.499c2.133-12.597,8.798-23.595,18.246-31.309c0.25-0.2,0.5-0.383,0.749-0.583
							c1.067-0.866,2.183-1.683,3.316-2.433c8.414-5.615,18.562-8.815,29.443-8.631c7.665,0.116,14.913,1.899,21.378,4.999
							c3.616,1.7,6.982,3.832,10.047,6.298c1.233,0.983,2.416,2.016,3.549,3.116l9.981-9.664l5.249-5.065l6.682-6.466
							c0.599,0.833,1.199,1.683,1.765,2.55c0.151,0.199,0.284,0.417,0.417,0.616c0.55,0.833,1.1,1.683,1.617,2.534
							c0.05,0.083,0.1,0.166,0.15,0.233c0.617,1,1.2,2,1.783,3.016c0.583,1.016,1.15,2.05,1.7,3.099v0.017
							c4.049,7.781,7.115,16.196,9.047,25.044c0.417,1.967,0.783,3.949,1.1,5.949c0.15,0.999,0.283,2.016,0.417,3.032
							c0.25,2.016,0.433,4.066,0.566,6.115C661.364,175.243,661.43,177.326,661.43,179.408z"/>
					</g>
				</g>
				<linearGradient id="SVGID_16_" gradientUnits="userSpaceOnUse" x1="135.1958" y1="187.6311" x2="161.4816" y2="187.6311">
					<stop  offset="0" style="stop-color:#34A8AB"/>
					<stop  offset="0.3572" style="stop-color:#44B8BD"/>
					<stop  offset="0.6122" style="stop-color:#4ABEC4"/>
				</linearGradient>
				<path class="st16" d="M141.719,171.81c0,0-7.949,23.641,19.763,31.642c0,0-29.315-2.432-26.029-29.279L141.719,171.81z"/>
				<linearGradient id="SVGID_17_" gradientUnits="userSpaceOnUse" x1="178.7215" y1="139.9845" x2="129.9784" y2="111.8427">
					<stop  offset="0.2654" style="stop-color:#3DAFAF"/>
					<stop  offset="0.485" style="stop-color:#36AEB1"/>
					<stop  offset="0.7966" style="stop-color:#24AAB7"/>
					<stop  offset="0.899" style="stop-color:#1CA9BA"/>
				</linearGradient>
				<path class="st17" d="M186.142,121.588v5.543L163.819,150.9c0,0-10.793-19.364-43.661-22.047c0,0,23.731-6.231,44.557,13.414
					L186.142,121.588z"/>
				<linearGradient id="SVGID_18_" gradientUnits="userSpaceOnUse" x1="348.4204" y1="135.1788" x2="414.405" y2="135.1788">
					<stop  offset="0.2654" style="stop-color:#3DAFAF"/>
					<stop  offset="0.485" style="stop-color:#36AEB1"/>
					<stop  offset="0.7966" style="stop-color:#24AAB7"/>
					<stop  offset="0.899" style="stop-color:#1CA9BA"/>
				</linearGradient>
				<path class="st18" d="M414.405,121.588v5.543l-22.24,21.638c0,0-10.876-17.233-43.745-19.916c0,0,23.731-6.231,44.557,13.414
					L414.405,121.588z"/>
				<linearGradient id="SVGID_19_" gradientUnits="userSpaceOnUse" x1="576.092" y1="135.1788" x2="642.0766" y2="135.1788">
					<stop  offset="0.2654" style="stop-color:#3DAFAF"/>
					<stop  offset="0.485" style="stop-color:#36AEB1"/>
					<stop  offset="0.7966" style="stop-color:#24AAB7"/>
					<stop  offset="0.899" style="stop-color:#1CA9BA"/>
				</linearGradient>
				<path class="st19" d="M642.077,121.588v5.543l-22.24,21.638c0,0-10.876-17.233-43.745-19.916c0,0,23.731-6.231,44.557,13.414
					L642.077,121.588z"/>
			</g>
			<linearGradient id="SVGID_20_" gradientUnits="userSpaceOnUse" x1="64.818" y1="38.3992" x2="429.1324" y2="38.3992">
				<stop  offset="0.2576" style="stop-color:#00A1B9"/>
				<stop  offset="0.5954" style="stop-color:#3CB5C1"/>
				<stop  offset="0.8652" style="stop-color:#67C3C6"/>
			</linearGradient>
			<path class="st20" d="M429.132,56.282c-94.132,5.523-247.999-45.028-364.314-23.735C69.859,31.022,260.918-6.375,429.132,56.282z
				"/>
		</g>
		<linearGradient id="SVGID_21_" gradientUnits="userSpaceOnUse" x1="526.4068" y1="256.3825" x2="639.1151" y2="256.3825">
			<stop  offset="0" style="stop-color:#009BB1"/>
			<stop  offset="0.4448" style="stop-color:#00A7B7"/>
			<stop  offset="0.8922" style="stop-color:#00ABB9"/>
		</linearGradient>
		<path class="st21" d="M639.115,242.522c-3.403,4.216-7.136,8.151-11.169,11.761c-12.14,9.941-28.026,15.959-45.402,15.959
			c-23.132,0-43.606-10.662-56.137-27.03c14.59,12.788,33.61,20.676,54.518,21.036h0.086
			C603.305,264.616,623.749,256.355,639.115,242.522z"/>
		<linearGradient id="SVGID_22_" gradientUnits="userSpaceOnUse" x1="298.5439" y1="256.351" x2="411.2522" y2="256.351">
			<stop  offset="0" style="stop-color:#029CB6"/>
			<stop  offset="0.4292" style="stop-color:#01A7B8"/>
			<stop  offset="0.8922" style="stop-color:#00ABB9"/>
		</linearGradient>
		<path class="st22" d="M411.252,242.491c-3.403,4.216-7.136,8.151-11.169,11.761c-12.14,9.941-28.026,15.959-45.402,15.959
			c-23.132,0-43.606-10.662-56.137-27.03c14.59,12.788,33.61,20.676,54.518,21.036h0.086
			C375.443,264.584,395.886,256.324,411.252,242.491z"/>
		<linearGradient id="SVGID_23_" gradientUnits="userSpaceOnUse" x1="98.6493" y1="268.2447" x2="130.8837" y2="212.413">
			<stop  offset="0" style="stop-color:#6BB3C1"/>
			<stop  offset="0.1928" style="stop-color:#45B0BE"/>
			<stop  offset="0.3839" style="stop-color:#27AEBC"/>
			<stop  offset="0.571" style="stop-color:#11ACBA"/>
			<stop  offset="0.7523" style="stop-color:#04ABB9"/>
			<stop  offset="0.9214" style="stop-color:#00ABB9"/>
		</linearGradient>
		<path class="st23" d="M183.061,242.537c-0.049,0.067-0.104,0.128-0.153,0.196c-1.136,1.399-2.303,2.768-3.513,4.1
			c-13.338,14.376-33.384,23.517-55.795,23.517c-32.492,0-60.011-19.215-69.334-45.726c14.425,22.961,39.531,37.93,66.646,39.69
			c13.564,0.862,27.311-1.534,39.757-7.032c6.452-2.853,12.55-6.519,18.097-10.851c1.515-1.167,2.914-2.45,4.234-3.831
			C183.018,242.58,183.036,242.556,183.061,242.537z"/>
	</g>
</g>
</svg>