<!-- Generator: Adobe Illustrator 21.1.0, SVG Export Plug-In  -->
<svg version="1.1"
	 xmlns="http://www.w3.org/2000/svg" xmlns:xlink="http://www.w3.org/1999/xlink" xmlns:a="http://ns.adobe.com/AdobeSVGViewerExtensions/3.0/"
	 x="0px" y="0px" width="136.695px" height="111.064px" viewBox="0 0 136.695 111.064"
	 style="enable-background:new 0 0 136.695 111.064;" xml:space="preserve">
<style type="text/css">
	.st0{fill:#FFFFFF;}
</style>
<defs>
</defs>
<path class="st0" d="M136.695,13.148c-5.083,2.23-10.5,3.708-16.147,4.425c5.81-3.469,10.244-8.919,12.328-15.489
	c-5.417,3.229-11.397,5.51-17.77,6.783C109.962,3.392,102.632,0,94.635,0C79.121,0,66.63,12.593,66.63,28.031
	c0,2.221,0.188,4.357,0.649,6.39C43.981,33.285,23.366,22.119,9.517,5.109C7.1,9.304,5.681,14.105,5.681,19.274
	c0,9.705,4.998,18.309,12.448,23.289c-4.502-0.085-8.919-1.393-12.661-3.452c0,0.085,0,0.196,0,0.308
	c0,13.618,9.714,24.93,22.452,27.535c-2.281,0.624-4.767,0.923-7.347,0.923c-1.794,0-3.605-0.103-5.305-0.478
	c3.631,11.098,13.934,19.257,26.186,19.522c-9.534,7.458-21.64,11.952-34.746,11.952c-2.298,0-4.502-0.103-6.707-0.384
	c12.414,8.005,27.125,12.576,42.99,12.576c51.568,0,79.761-42.717,79.761-79.744c0-1.239-0.043-2.435-0.103-3.622
	C128.211,23.751,132.884,18.821,136.695,13.148z"/>
</svg>