<!-- Generator: Adobe Illustrator 21.1.0, SVG Export Plug-In  -->
<svg version="1.1"
	 xmlns="http://www.w3.org/2000/svg" xmlns:xlink="http://www.w3.org/1999/xlink" xmlns:a="http://ns.adobe.com/AdobeSVGViewerExtensions/3.0/"
	 x="0px" y="0px" width="111.064px" height="111.064px" viewBox="0 0 111.064 111.064"
	 style="enable-background:new 0 0 111.064 111.064;" xml:space="preserve">
<style type="text/css">
	.st0{fill:#3D4450;}
</style>
<defs>
</defs>
<g>
	<path class="st0" d="M76.357,0H34.708C15.542,0,0,15.542,0,34.708v41.649c0,19.166,15.542,34.708,34.708,34.708h41.649
		c19.166,0,34.708-15.542,34.708-34.708V34.708C111.064,15.542,95.522,0,76.357,0z M100.652,76.357
		c0,13.397-10.898,24.295-24.295,24.295H34.708c-13.397,0-24.295-10.898-24.295-24.295V34.708c0-13.397,10.898-24.295,24.295-24.295
		h41.649c13.397,0,24.295,10.898,24.295,24.295V76.357z"/>
	<path class="st0" d="M55.532,27.766c-15.334,0-27.766,12.432-27.766,27.766s12.432,27.766,27.766,27.766
		s27.766-12.432,27.766-27.766S70.866,27.766,55.532,27.766z M55.532,72.886c-9.565,0-17.354-7.788-17.354-17.354
		c0-9.572,7.788-17.354,17.354-17.354s17.354,7.781,17.354,17.354C72.886,65.098,65.098,72.886,55.532,72.886z"/>
	<circle class="st0" cx="85.381" cy="25.684" r="3.7"/>
</g>
</svg>