<!-- Generator: Adobe Illustrator 21.1.0, SVG Export Plug-In  -->
<svg version="1.1"
	 xmlns="http://www.w3.org/2000/svg" xmlns:xlink="http://www.w3.org/1999/xlink" xmlns:a="http://ns.adobe.com/AdobeSVGViewerExtensions/3.0/"
	 x="0px" y="0px" width="485.21px" height="485.214px" viewBox="0 0 485.21 485.214"
	 style="enable-background:new 0 0 485.21 485.214;" xml:space="preserve">
<style type="text/css">
	.st0{fill:#65798A;}
</style>
<defs>
</defs>
<g>
	<g>
		<path class="st0" d="M471.881,407.567L360.566,296.243c-16.586,25.795-38.536,47.734-64.331,64.321l111.324,111.324
			c17.772,17.768,46.587,17.768,64.321,0C489.653,454.149,489.653,425.334,471.881,407.567z"/>
		<path class="st0" d="M363.908,181.955C363.908,81.473,282.439,0,181.955,0C81.473,0,0,81.473,0,181.955
			s81.473,181.951,181.955,181.951C282.439,363.906,363.908,282.437,363.908,181.955z M181.955,318.416
			c-75.252,0-136.465-61.208-136.465-136.46S106.703,45.491,181.955,45.491c75.25,0,136.468,61.213,136.468,136.465
			S257.205,318.416,181.955,318.416z"/>
		<path class="st0" d="M75.816,181.955h30.322c0-41.803,34.014-75.814,75.816-75.814V75.816
			C123.437,75.816,75.816,123.437,75.816,181.955z"/>
	</g>
</g>
</svg>