<!-- Generator: Adobe Illustrator 21.1.0, SVG Export Plug-In  -->
<svg version="1.1"
	 xmlns="http://www.w3.org/2000/svg" xmlns:xlink="http://www.w3.org/1999/xlink" xmlns:a="http://ns.adobe.com/AdobeSVGViewerExtensions/3.0/"
	 x="0px" y="0px" width="190.727px" height="190.728px" viewBox="0 0 190.727 190.728"
	 style="enable-background:new 0 0 190.727 190.728;" xml:space="preserve">
<style type="text/css">
	.st0{fill:#FFFFFF;}
</style>
<defs>
</defs>
<g>
	<path class="st0" d="M82.4,132.034l-31.432,31.432c-6.536,6.537-17.171,6.537-23.707,0c-6.537-6.535-6.537-17.17,0-23.706
		c1.206-1.208,50.851-50.853,49.282-49.282c6.376-6.378,17.165-6.541,23.706,0c0.53,0.53,0.928,1.131,1.371,1.708
		c2.357-0.226,4.607,0.217,6.532-1.708l11.382-11.382c-1.103-1.506-2.117-3.059-3.481-4.422c-15.151-15.152-40.463-14.853-55.315,0
		l-49.281,49.281c-15.274,15.274-15.274,40.041,0,55.315c15.275,15.276,40.041,15.276,55.316,0l43.103-43.103
		C94.649,137.935,85.469,132.804,82.4,132.034z"/>
	<path class="st0" d="M179.271,11.456c-15.275-15.274-40.041-15.274-55.316,0L82.721,52.69c15.225-1.767,24.406,3.366,27.474,4.134
		l29.565-29.564c6.537-6.536,17.169-6.536,23.706,0c6.536,6.537,6.536,17.171,0,23.707l-38.324,38.324l-9.09,9.089
		c-6.376,6.379-17.165,6.542-23.706,0c-0.53-0.528-0.928-1.129-1.371-1.707c-2.357,0.225-4.607-0.218-6.532,1.707l-11.382,11.382
		c1.103,1.506,2.117,3.06,3.481,4.424c15.151,15.152,40.463,14.851,55.315,0l47.413-47.414
		C194.545,51.497,194.545,26.73,179.271,11.456z"/>
</g>
</svg>